<?xml version="1.0" encoding="UTF-8"?><svg id="a" xmlns="http://www.w3.org/2000/svg" viewBox="0 0 540 540"><defs><style>.b{fill:#ce1a2d;}</style></defs><path class="b" d="M186.63,338.49v8.31c0,4.03-.5,8.02-1.5,11.93h24.61c-.94-3.69-1.43-7.46-1.49-11.26v-62.61h-23.11c1,3.9,1.5,15.84,1.5,19.85v4.39h-.02v4.07h.02v25.32h-.02Z"/><path class="b" d="M409.61,297.96l-4.72,.98c-1.37,.28-2.42,1.38-2.65,2.75l-.17,.98c-1.22,6.72-6.47,11.99-13.11,13.54l-2.75,.65h0c-3.12,0-5.65,2.53-5.65,5.65v.24h6.14v17.5c0,14.19,10.1,18.47,16.65,18.47s11.47-1.81,14.52-7.44c2.49-4.6,.71-11.85-7.82-11.85s-10.29,7.22-8.1,11.43c.18,.34-.1,.76-.48,.71-2.98-.41-6.1-3.63-5.49-8.72,.59-5.02,4.82-8.21,9.54-9.39,2.37-.59,4.09-2.64,4.09-5.08v-5.63l9.01,1.65c.73,.13,1.37-.49,1.27-1.22l-.76-5.28c-.09-.6-.6-1.05-1.21-1.05h-8.3v-18.9Z"/><path class="b" d="M296.46,358.73c10.89,0,19.02-1.05,22.36-5.85,5.64-8.08-.18-14.9-4.59-18.11-5.7-4.13-12.4-8.9-17.09-12.61-2.86-2.25-3.33-2.98-2.26-4.62,1.55-2.37,10.13-1.22,11.99,6.91,1.43,6.32,11.32,7.57,12.9,.79,.97-4.24-3.81-7.35-7.09-8.9-3.78-1.78-9.5-2.64-16.35-2.64s-13.93,.79-18.82,4.33c-.04,.03-.08,.06-.12,.09-6.15,4.55-3.09,14.45,4.55,14.8,2.32,.11,4.6,.69,7.05,1.82,7.14,3.3,15.26,13.8,6.71,19.58-1.46,.99-6.24,1.52-6.31-7.26-.05-6.41-4.55-10.43-9.76-10.84-4.53-.35-9.2,2.83-10.23,7.07-1.16,4.73,1.21,15.45,27.07,15.45Z"/><path class="b" d="M377.17,349.09c-1.85-1.71-4.38-2.45-6.8-1.75-6.9,1.98-12.66,2.29-17.38,1.55-4.51-.71-3.91-7.3,.65-7.22h.37c3.41,.14,9.65-.79,12.69-1.82,5.66-1.92,10.51-5.98,9.72-13.3-1.09-10.22-13.05-12.85-23.36-12.85-15.42,0-28.53,7.32-28.53,22.4s14.6,22.64,27.54,22.64c9.82,0,20.27-3.35,25.14-9.62l-.03-.03Zm-31.03-14.15c-3.26-2.5,.14-8.02,3.72-11.48,3.2-3.1,8.19-4.74,10.53-3.91,3.23,2.18,.73,6.62-2.3,10.14-4.65,5.41-10,6.74-11.95,5.25Z"/><path class="b" d="M225.01,342.69c7.71-1.71,5.83-10.22,6.18-12.99,.85-6.75,4.41-11.78,8.6-11.78,5.31,0,9.39,8.65,9.39,18.2s-4.08,18.21-9.39,18.21c-3.54,0-6.59-3.95-8.18-9.45v-.03c-.29-.92-1.38-1.32-2.16-.77-3.24,2.27-8.82,3.15-12.67,.79-.77-.47-1.72,.28-1.4,1.13,3.46,9.23,12.38,12.72,24.41,12.72,15.63,0,26.01-5.89,26.01-22.6s-10.37-22.6-26.01-22.6c-.97,0-1.95,.02-2.92,.08-6.04,.33-12.26,1.75-16.93,5.82-3.89,3.39-5.86,7.67-6.66,11.64-.74,3.69,.46,14.12,11.74,11.63Z"/><path class="b" d="M177.05,343.42c.22,.16,.37,.39,.37,.65,0,1.74-7.32,14.66-27.11,14.66s-35.14-16.46-35.14-35.31c0-20.75,16.78-35.61,35.19-35.61,6.04,0,18.26,.11,23.25,8.73,4.64,8-1.15,15.06-8.95,15.06-6.36,0-11.07-4.91-11.07-10.21,0-1.93,.51-2.78,.51-3.75,0-5.63-21.89-1.04-21.89,20.61,0,8.1,4.75,28.48,23.4,28.48,4.95,0,9.97-1.54,13.46-3.83,1.06-.7,2.04-1.99,3.4-1.99,.83,0,1.03,.24,4.58,2.51Z"/><path class="b" d="M342.15,265.62c-3.53,1.77-10.56,6.57-15.65,6.57h-2.92l25.59-35.07c.5-.69,.77-1.51,.77-2.36h0c0-2.21-1.79-4.01-4.01-4.01h-26.8c-7.3,0-13.55,5.26-14.79,12.46l-.03,.2c-.5,2.85,3,4.57,6.01,4.23,2.85-.31,5.21-2.49,5.06-6.17-.25-5.97,5.53-5.97,12.56-5.97h1.96l-23.87,32.73c-1.61,2.21-2.48,4.87-2.48,7.6h0l-.15,1.11h39.7c3.61,0,6.68-2.61,7.26-6.17l.02-.11c.75-4.64-3.75-7.28-8.22-5.04Z"/><path class="b" d="M285.43,265.62c-3.53,1.77-10.56,6.57-15.65,6.57h-2.92l25.59-35.07c.5-.69,.77-1.51,.77-2.36h0c0-2.21-1.79-4.01-4.01-4.01h-26.8c-7.3,0-13.55,5.26-14.79,12.46l-.03,.2c-.5,2.85,3,4.57,6.01,4.23,2.85-.31,5.21-2.49,5.06-6.17-.25-5.97,5.53-5.97,12.56-5.97h1.96l-23.87,32.73c-1.61,2.21-2.48,4.87-2.48,7.6h0l-.15,1.11h45.9s.49-2.68,1.07-6.28c.75-4.64-3.75-7.28-8.22-5.04Z"/><path class="b" d="M442.8,215.92c-6.19,5.64-16.17-6.19-26.37,8.08l-17.89,30.5c-1.82,3.09-2.78,6.6-2.78,10.19v.72c0,.07-.03,.12-.03,.19v21.82c-.01,18.08-8.91,22.94-22.07,22.94-5.57,0-14.39-.66-17.71-3.16-2.15-1.64-5.04-3.85-5.46-8.38-.64-7.31,5-9.9,10.08-9.9,6.46,0,10.3,4.7,8.83,10.3-.61,2.33-2.79,4.07-2.03,5.46,.73,1.3,4.85,1.23,6.06,.93,2.8-.7,4.97-2.13,4.97-4.31s-.04-9.05-.04-13.99v-20.64c.03-.68,.04-1.28,.04-1.78,0-.32-.01-.62-.03-.92-.15-3.22-1.05-6.35-2.68-9.14l-11.46-19.64c-1.19-2.03-2.56-3.96-4.09-5.74l-1.27-1.48h10.63c5.66,0,10.8,3.08,13.73,7.92l.05,.08,6.57,10.86,2.6,4.3,17.04-28.83c9.05-13.77,14.63-18.61,22.85-20.72,9.71-2.5,17.51,7.91,10.44,14.35Z"/><path class="b" d="M237.25,207.87c-4.78,5.66-5.82,13.56-5.82,28.51,0,0-.02,3.21-.02,3.63,0,0,0,5.05,.01,5.05v13.09c0,6.22-3.91,11.88-8.98,11.88s-8.98-5.66-8.98-11.88c0-3.26,0-6.52,0-9.78,0-5.83-.35-11.75,1.12-17.45-6.16,.01-12.31,0-18.47,0h-1.14c.77,2.97,1.14,6.02,1.14,9.08v16.36c0,13.67,6.79,19.37,17.35,20.39,1.2,.13,2.44,.18,3.73,.18,5.76,0,10.64-1.1,14.24-3.75,4.34-3.16,6.83-8.52,6.83-16.82v-22.42c-.15-18.25,12.61-8.97,15.52-18.86,3.13-10.59-10.22-14.67-16.53-7.22Z"/><path class="b" d="M188.01,231.71c-1.71-8.03-10.38-19.55-18.85-21.17,.1-.08,.2-.17,.3-.25,.03-.02,.07-.05,.08-.07,3.72-3.07,5.97-7.3,5.97-11.95,0-9.38-9.24-16.99-20.66-16.99h-45.83c6.74,5.35,8.39,7.24,8.39,13.45v19.2c0,1.24,.95,2.27,2.19,2.39,7.89,.73,13.53,3.97,17.36,8.67,2.07,2.56,6.16,1.2,6.16-2.09v-7.64h3.41c7.35,0,16.28,12.29,18.14,19.7,3.63,14.49,.93,34.31-19.33,34.31-13.7-.35-17.34-13.09-13.65-20.94,7.5-16.04-5.39-29.56-19.67-27.63-11.23,1.49-21.79,13.06-15.83,28.97,7.17,19.15,29.4,27.27,50.03,27.27,14.51,0,48.83-12.28,41.8-45.23Zm-40.47-23.21c-2.44,0-4.43-1.99-4.43-4.43v-16.17h4.43c4.89,0,8.83,4.6,8.83,10.28s-3.94,10.31-8.83,10.31Z"/></svg>